<?xml version="1.0" encoding="UTF-8" standalone="no"?>
<!DOCTYPE svg PUBLIC "-//W3C//DTD SVG 1.1//EN" "http://www.w3.org/Graphics/SVG/1.1/DTD/svg11.dtd">
<svg width="100%" height="100%" viewBox="0 0 1129 663" version="1.1" xmlns="http://www.w3.org/2000/svg" xmlns:xlink="http://www.w3.org/1999/xlink" xml:space="preserve" xmlns:serif="http://www.serif.com/" style="fill-rule:evenodd;clip-rule:evenodd;stroke-linejoin:round;stroke-miterlimit:2;">
    <path d="M1129,29.278C1129,13.119 1115.88,0 1099.72,0L29.278,0C13.119,0 0,13.119 0,29.278L0,633.6C0,649.759 13.119,662.878 29.278,662.878L1099.72,662.878C1115.88,662.878 1129,649.759 1129,633.6L1129,29.278Z" style="fill:rgb(235,235,235);"/>
    <rect x="92.62" y="91.161" width="943.761" height="54.253" style="fill:rgb(63,61,86);"/>
    <path d="M92.62,118.288L92.62,586.302C92.62,599.201 103.61,609.815 116.967,609.815L1012.03,609.815C1025.39,609.815 1036.38,599.201 1036.38,586.302L1036.38,118.288L92.62,118.288Z" style="fill:rgb(63,61,86);fill-rule:nonzero;"/>
    <path d="M1012.03,53.185L116.967,53.185C103.61,53.185 92.62,63.799 92.62,76.698L92.62,118.288L1036.38,118.288L1036.38,76.698C1036.38,63.799 1025.39,53.185 1012.03,53.185Z" style="fill:rgb(63,61,86);fill-rule:nonzero;"/>
    <path d="M1012.03,53.185L116.967,53.185C103.61,53.185 92.62,63.799 92.62,76.698L92.62,118.288L1036.38,118.288L1036.38,76.698C1036.38,63.799 1025.39,53.185 1012.03,53.185Z" style="fill-opacity:0.2;fill-rule:nonzero;"/>
    <circle cx="132.677" cy="87.345" r="13" style="fill:rgb(255,90,83);"/>
    <circle cx="168.677" cy="87.345" r="13" style="fill:rgb(231,192,42);"/>
    <circle cx="204.677" cy="87.345" r="13" style="fill:rgb(84,193,42);"/>
    <path d="M950.341,280.292C950.341,277.269 947.887,274.815 944.865,274.815L671.818,274.815C668.795,274.815 666.341,277.269 666.341,280.292L666.341,291.339C666.341,294.361 668.795,296.815 671.818,296.815L944.865,296.815C947.887,296.815 950.341,294.361 950.341,291.339L950.341,280.292Z" style="fill:rgb(46,133,85);"/>
    <path d="M1016.34,360.292C1016.34,357.269 1013.89,354.815 1010.87,354.815L605.818,354.815C602.795,354.815 600.341,357.269 600.341,360.292L600.341,364.339C600.341,367.361 602.795,369.815 605.818,369.815L1010.87,369.815C1013.89,369.815 1016.34,367.361 1016.34,364.339L1016.34,360.292Z" style="fill:rgb(46,133,85);"/>
    <path d="M1016.34,404.292C1016.34,401.269 1013.89,398.815 1010.87,398.815L605.818,398.815C602.795,398.815 600.341,401.269 600.341,404.292L600.341,408.339C600.341,411.361 602.795,413.815 605.818,413.815L1010.87,413.815C1013.89,413.815 1016.34,411.361 1016.34,408.339L1016.34,404.292Z" style="fill:rgb(46,133,85);"/>
    <path d="M1016.34,448.292C1016.34,445.269 1013.89,442.815 1010.87,442.815L605.818,442.815C602.795,442.815 600.341,445.269 600.341,448.292L600.341,452.339C600.341,455.361 602.795,457.815 605.818,457.815L1010.87,457.815C1013.89,457.815 1016.34,455.361 1016.34,452.339L1016.34,448.292Z" style="fill:rgb(46,133,85);"/>
    <path d="M1016.34,492.292C1016.34,489.269 1013.89,486.815 1010.87,486.815L605.818,486.815C602.795,486.815 600.341,489.269 600.341,492.292L600.341,496.339C600.341,499.361 602.795,501.815 605.818,501.815L1010.87,501.815C1013.89,501.815 1016.34,499.361 1016.34,496.339L1016.34,492.292Z" style="fill:rgb(46,133,85);"/>
    <path d="M1016.34,561.843C1016.34,557.964 1013.19,554.815 1009.31,554.815L935.369,554.815C931.49,554.815 928.341,557.964 928.341,561.843L928.341,573.788C928.341,577.666 931.49,580.815 935.369,580.815L1009.31,580.815C1013.19,580.815 1016.34,577.666 1016.34,573.788L1016.34,561.843Z" style="fill:rgb(62,204,95);"/>
    <rect x="92.62" y="124.172" width="943.755" height="462.619" style="fill:rgb(43,43,43);"/>
    <g transform="matrix(0.51649,0,0,0.51649,94.1867,79.4679)">
        <g transform="matrix(103.445,0,0,103.445,118.403,254.45)">
            <path d="M-0.468,-0.265L-0.432,-0.455L-0.531,-0.455L-0.531,-0.52L-0.42,-0.52L-0.383,-0.72L-0.313,-0.72L-0.35,-0.52L-0.19,-0.52L-0.153,-0.72L-0.083,-0.72L-0.12,-0.52L0.21,-0.52L0.21,-0.83L0.455,-0.83L0.455,-0.75L0.3,-0.75L0.3,0.03L0.455,0.03L0.455,0.11L0.21,0.11L0.21,-0.2L-0.18,-0.2L-0.217,0L-0.287,0L-0.25,-0.2L-0.41,-0.2L-0.447,0L-0.517,0L-0.48,-0.2L-0.565,-0.2L-0.565,-0.265L-0.468,-0.265ZM0.21,-0.265L0.21,-0.455L-0.132,-0.455L-0.168,-0.265L0.21,-0.265ZM-0.398,-0.265L-0.238,-0.265L-0.202,-0.455L-0.362,-0.455L-0.398,-0.265Z" style="fill:rgb(188,182,0);fill-rule:nonzero;"/>
        </g>
        <g transform="matrix(103.445,0,0,103.445,182.54,254.45)">
            <path d="M0.073,-0.35C0.073,-0.382 0.077,-0.411 0.086,-0.437C0.095,-0.463 0.107,-0.485 0.124,-0.503C0.14,-0.521 0.16,-0.535 0.183,-0.545C0.206,-0.555 0.232,-0.56 0.261,-0.56C0.301,-0.56 0.335,-0.551 0.363,-0.532C0.391,-0.513 0.41,-0.485 0.42,-0.45L0.427,-0.45L0.427,-0.55L0.512,-0.55L0.512,-0.04C0.512,0.025 0.493,0.075 0.455,0.111C0.417,0.147 0.364,0.165 0.295,0.165L0.16,0.165L0.16,0.083L0.295,0.083C0.335,0.083 0.366,0.072 0.389,0.051C0.411,0.03 0.422,-0.001 0.422,-0.04L0.422,-0.06L0.426,-0.16L0.42,-0.16C0.41,-0.125 0.391,-0.097 0.363,-0.079C0.335,-0.059 0.301,-0.05 0.261,-0.05C0.232,-0.05 0.206,-0.055 0.184,-0.065C0.161,-0.075 0.141,-0.089 0.125,-0.107C0.108,-0.125 0.096,-0.147 0.087,-0.173C0.078,-0.199 0.073,-0.228 0.073,-0.26L0.073,-0.35ZM0.165,-0.26C0.165,-0.219 0.177,-0.186 0.2,-0.163C0.223,-0.14 0.254,-0.128 0.294,-0.128C0.334,-0.128 0.365,-0.14 0.388,-0.163C0.411,-0.186 0.422,-0.219 0.422,-0.26L0.422,-0.35C0.422,-0.391 0.411,-0.424 0.388,-0.447C0.365,-0.47 0.334,-0.482 0.294,-0.482C0.254,-0.482 0.223,-0.47 0.2,-0.447C0.177,-0.424 0.165,-0.391 0.165,-0.35L0.165,-0.26Z" style="fill:rgb(188,182,0);fill-rule:nonzero;"/>
        </g>
        <g transform="matrix(103.445,0,0,103.445,244.607,254.45)">
            <path d="M0.3,0.01C0.231,0.01 0.178,-0.009 0.139,-0.046C0.099,-0.083 0.08,-0.135 0.08,-0.2L0.08,-0.35C0.08,-0.415 0.099,-0.467 0.139,-0.504C0.178,-0.541 0.231,-0.56 0.3,-0.56C0.369,-0.56 0.423,-0.541 0.462,-0.504C0.501,-0.467 0.52,-0.415 0.52,-0.35L0.52,-0.249L0.17,-0.249L0.17,-0.205C0.17,-0.163 0.182,-0.13 0.205,-0.106C0.228,-0.082 0.259,-0.07 0.3,-0.07C0.33,-0.07 0.356,-0.075 0.378,-0.084C0.4,-0.093 0.416,-0.107 0.427,-0.125L0.517,-0.125C0.506,-0.083 0.481,-0.05 0.442,-0.026C0.403,-0.002 0.355,0.01 0.3,0.01ZM0.43,-0.324L0.43,-0.35C0.43,-0.391 0.419,-0.423 0.396,-0.446C0.373,-0.469 0.341,-0.48 0.3,-0.48C0.259,-0.48 0.227,-0.469 0.204,-0.446C0.181,-0.423 0.17,-0.391 0.17,-0.35L0.17,-0.324L0.43,-0.324Z" style="fill:rgb(188,182,0);fill-rule:nonzero;"/>
        </g>
        <g transform="matrix(103.445,0,0,103.445,306.674,254.45)">
            <path d="M0.06,-0.55L0.22,-0.55L0.22,-0.72L0.31,-0.72L0.31,-0.55L0.525,-0.55L0.525,-0.468L0.31,-0.468L0.31,-0.142C0.31,-0.123 0.316,-0.109 0.328,-0.098C0.339,-0.087 0.355,-0.082 0.375,-0.082L0.515,-0.082L0.515,0L0.375,0C0.328,0 0.29,-0.013 0.262,-0.039C0.234,-0.065 0.22,-0.099 0.22,-0.142L0.22,-0.468L0.06,-0.468L0.06,-0.55Z" style="fill:rgb(188,182,0);fill-rule:nonzero;"/>
        </g>
        <g transform="matrix(103.445,0,0,103.445,368.741,254.45)">
            <path d="M0.185,-0.455C0.185,-0.504 0.192,-0.549 0.206,-0.592C0.22,-0.634 0.24,-0.672 0.266,-0.706C0.292,-0.739 0.323,-0.768 0.361,-0.792C0.398,-0.816 0.439,-0.834 0.485,-0.845L0.485,-0.76C0.453,-0.753 0.424,-0.74 0.398,-0.722C0.372,-0.704 0.35,-0.682 0.332,-0.655C0.314,-0.628 0.3,-0.598 0.29,-0.565C0.28,-0.531 0.275,-0.494 0.275,-0.455L0.275,-0.265C0.275,-0.226 0.28,-0.19 0.29,-0.157C0.299,-0.124 0.313,-0.094 0.332,-0.068C0.35,-0.042 0.372,-0.02 0.398,-0.002C0.424,0.016 0.453,0.029 0.485,0.036L0.485,0.125C0.438,0.113 0.396,0.095 0.359,0.072C0.321,0.049 0.29,0.02 0.265,-0.013C0.239,-0.046 0.219,-0.084 0.206,-0.127C0.192,-0.169 0.185,-0.215 0.185,-0.265L0.185,-0.455Z" style="fill:rgb(188,182,0);fill-rule:nonzero;"/>
        </g>
        <g transform="matrix(103.445,0,0,103.445,430.808,254.45)">
            <path d="M0.353,-0.73L0.45,-0.73L0.45,-0.58L0.439,-0.43L0.365,-0.43L0.353,-0.58L0.353,-0.73ZM0.15,-0.58L0.15,-0.73L0.247,-0.73L0.247,-0.58L0.236,-0.43L0.162,-0.43L0.15,-0.58Z" style="fill:rgb(98,137,84);fill-rule:nonzero;"/>
        </g>
        <g transform="matrix(103.445,0,0,103.445,492.876,254.45)">
            <path d="M0.43,-0.83L0.525,-0.83L0.17,0.11L0.075,0.11L0.43,-0.83Z" style="fill:rgb(98,137,84);fill-rule:nonzero;"/>
        </g>
        <g transform="matrix(103.445,0,0,103.445,554.943,254.45)">
            <path d="M0.09,-0.55L0.18,-0.55L0.18,-0.194C0.18,-0.111 0.22,-0.069 0.299,-0.069C0.38,-0.069 0.42,-0.111 0.42,-0.194L0.42,-0.55L0.51,-0.55L0.51,-0.194C0.51,-0.129 0.492,-0.078 0.456,-0.043C0.419,-0.008 0.367,0.01 0.299,0.01C0.232,0.01 0.181,-0.008 0.145,-0.044C0.108,-0.079 0.09,-0.129 0.09,-0.194L0.09,-0.55Z" style="fill:rgb(98,137,84);fill-rule:nonzero;"/>
        </g>
        <g transform="matrix(103.445,0,0,103.445,617.01,254.45)">
            <path d="M0.285,0.01C0.227,0.01 0.179,-0.003 0.142,-0.03C0.104,-0.056 0.082,-0.091 0.077,-0.135L0.172,-0.135C0.176,-0.116 0.188,-0.1 0.209,-0.088C0.23,-0.076 0.255,-0.07 0.285,-0.07L0.313,-0.07C0.349,-0.07 0.377,-0.078 0.397,-0.093C0.417,-0.108 0.427,-0.128 0.427,-0.153C0.427,-0.196 0.396,-0.223 0.335,-0.232L0.252,-0.244C0.198,-0.252 0.158,-0.269 0.131,-0.295C0.104,-0.321 0.091,-0.357 0.091,-0.404C0.091,-0.453 0.109,-0.492 0.144,-0.519C0.179,-0.546 0.227,-0.56 0.29,-0.56L0.318,-0.56C0.345,-0.56 0.369,-0.557 0.392,-0.55C0.415,-0.543 0.435,-0.534 0.452,-0.522C0.469,-0.509 0.484,-0.495 0.495,-0.478C0.505,-0.46 0.513,-0.442 0.516,-0.421L0.421,-0.421C0.417,-0.438 0.406,-0.452 0.387,-0.464C0.368,-0.474 0.345,-0.48 0.318,-0.48L0.29,-0.48C0.256,-0.48 0.23,-0.473 0.211,-0.46C0.192,-0.447 0.182,-0.427 0.182,-0.4C0.182,-0.379 0.189,-0.363 0.202,-0.352C0.215,-0.341 0.236,-0.333 0.265,-0.329L0.348,-0.317C0.407,-0.308 0.451,-0.291 0.478,-0.265C0.505,-0.239 0.518,-0.202 0.518,-0.154C0.518,-0.103 0.5,-0.063 0.465,-0.034C0.429,-0.005 0.378,0.01 0.313,0.01L0.285,0.01Z" style="fill:rgb(98,137,84);fill-rule:nonzero;"/>
        </g>
        <g transform="matrix(103.445,0,0,103.445,679.077,254.45)">
            <path d="M0.3,0.01C0.231,0.01 0.178,-0.009 0.139,-0.046C0.099,-0.083 0.08,-0.135 0.08,-0.2L0.08,-0.35C0.08,-0.415 0.099,-0.467 0.139,-0.504C0.178,-0.541 0.231,-0.56 0.3,-0.56C0.369,-0.56 0.423,-0.541 0.462,-0.504C0.501,-0.467 0.52,-0.415 0.52,-0.35L0.52,-0.249L0.17,-0.249L0.17,-0.205C0.17,-0.163 0.182,-0.13 0.205,-0.106C0.228,-0.082 0.259,-0.07 0.3,-0.07C0.33,-0.07 0.356,-0.075 0.378,-0.084C0.4,-0.093 0.416,-0.107 0.427,-0.125L0.517,-0.125C0.506,-0.083 0.481,-0.05 0.442,-0.026C0.403,-0.002 0.355,0.01 0.3,0.01ZM0.43,-0.324L0.43,-0.35C0.43,-0.391 0.419,-0.423 0.396,-0.446C0.373,-0.469 0.341,-0.48 0.3,-0.48C0.259,-0.48 0.227,-0.469 0.204,-0.446C0.181,-0.423 0.17,-0.391 0.17,-0.35L0.17,-0.324L0.43,-0.324Z" style="fill:rgb(98,137,84);fill-rule:nonzero;"/>
        </g>
        <g transform="matrix(103.445,0,0,103.445,741.144,254.45)">
            <path d="M0.112,-0.55L0.197,-0.55L0.197,-0.455L0.205,-0.455C0.214,-0.488 0.232,-0.513 0.259,-0.532C0.286,-0.551 0.32,-0.56 0.36,-0.56C0.418,-0.56 0.464,-0.542 0.497,-0.506C0.53,-0.469 0.546,-0.419 0.546,-0.356L0.546,-0.325L0.456,-0.325L0.456,-0.345C0.456,-0.388 0.445,-0.422 0.424,-0.446C0.402,-0.469 0.371,-0.481 0.331,-0.481C0.292,-0.481 0.26,-0.469 0.237,-0.445C0.214,-0.42 0.202,-0.387 0.202,-0.345L0.202,0L0.112,0L0.112,-0.55Z" style="fill:rgb(98,137,84);fill-rule:nonzero;"/>
        </g>
        <g transform="matrix(103.445,0,0,103.445,803.212,254.45)">
            <path d="M0.353,-0.73L0.45,-0.73L0.45,-0.58L0.439,-0.43L0.365,-0.43L0.353,-0.58L0.353,-0.73ZM0.15,-0.58L0.15,-0.73L0.247,-0.73L0.247,-0.58L0.236,-0.43L0.162,-0.43L0.15,-0.58Z" style="fill:rgb(97,135,83);fill-rule:nonzero;"/>
        </g>
        <g transform="matrix(103.445,0,0,103.445,865.279,254.45)">
            <path d="M0.115,0.036C0.147,0.029 0.176,0.016 0.202,-0.002C0.228,-0.02 0.25,-0.042 0.269,-0.068C0.287,-0.094 0.301,-0.124 0.311,-0.157C0.32,-0.19 0.325,-0.226 0.325,-0.265L0.325,-0.455C0.325,-0.494 0.32,-0.531 0.31,-0.565C0.3,-0.598 0.286,-0.628 0.268,-0.655C0.25,-0.682 0.228,-0.704 0.202,-0.722C0.176,-0.74 0.147,-0.753 0.115,-0.76L0.115,-0.845C0.161,-0.834 0.203,-0.816 0.24,-0.792C0.277,-0.768 0.308,-0.739 0.334,-0.706C0.36,-0.672 0.38,-0.634 0.394,-0.592C0.408,-0.549 0.415,-0.504 0.415,-0.455L0.415,-0.265C0.415,-0.215 0.408,-0.169 0.395,-0.127C0.381,-0.084 0.361,-0.046 0.336,-0.013C0.31,0.02 0.278,0.049 0.242,0.072C0.204,0.095 0.162,0.113 0.115,0.125L0.115,0.036Z" style="fill:rgb(188,182,0);fill-rule:nonzero;"/>
        </g>
        <g transform="matrix(103.445,0,0,103.445,927.346,254.45)">
            <path d="M0.15,0.11L0.15,0.03L0.305,0.03L0.305,-0.75L0.15,-0.75L0.15,-0.83L0.395,-0.83L0.395,0.11L0.15,0.11Z" style="fill:rgb(188,182,0);fill-rule:nonzero;"/>
        </g>
        <g transform="matrix(103.445,0,0,103.445,56.3362,357.896)">
            <path d="M0.063,-0.16C0.063,-0.186 0.068,-0.21 0.077,-0.231C0.086,-0.252 0.098,-0.269 0.116,-0.284C0.133,-0.299 0.153,-0.31 0.177,-0.318C0.201,-0.326 0.228,-0.33 0.258,-0.33L0.422,-0.33L0.422,-0.375C0.422,-0.409 0.411,-0.436 0.389,-0.455C0.366,-0.474 0.334,-0.483 0.292,-0.483C0.261,-0.483 0.235,-0.477 0.214,-0.466C0.192,-0.455 0.177,-0.439 0.17,-0.419L0.08,-0.419C0.089,-0.462 0.113,-0.497 0.152,-0.522C0.19,-0.547 0.237,-0.56 0.294,-0.56C0.362,-0.56 0.415,-0.544 0.454,-0.513C0.493,-0.481 0.512,-0.437 0.512,-0.38L0.512,0L0.43,0L0.43,-0.105L0.422,-0.105C0.413,-0.07 0.393,-0.042 0.361,-0.021C0.329,0 0.29,0.01 0.244,0.01C0.189,0.01 0.145,-0.005 0.112,-0.036C0.079,-0.067 0.063,-0.108 0.063,-0.16ZM0.264,-0.064C0.287,-0.064 0.308,-0.067 0.327,-0.073C0.346,-0.079 0.363,-0.088 0.377,-0.099C0.391,-0.11 0.402,-0.122 0.41,-0.137C0.418,-0.152 0.422,-0.168 0.422,-0.185L0.422,-0.26L0.26,-0.26C0.227,-0.26 0.2,-0.251 0.182,-0.234C0.163,-0.217 0.153,-0.193 0.153,-0.162C0.153,-0.131 0.163,-0.107 0.182,-0.09C0.201,-0.073 0.229,-0.064 0.264,-0.064Z" style="fill:rgb(217,115,23);fill-rule:nonzero;"/>
        </g>
        <g transform="matrix(103.445,0,0,103.445,118.403,357.896)">
            <path d="M0.285,0.01C0.227,0.01 0.179,-0.003 0.142,-0.03C0.104,-0.056 0.082,-0.091 0.077,-0.135L0.172,-0.135C0.176,-0.116 0.188,-0.1 0.209,-0.088C0.23,-0.076 0.255,-0.07 0.285,-0.07L0.313,-0.07C0.349,-0.07 0.377,-0.078 0.397,-0.093C0.417,-0.108 0.427,-0.128 0.427,-0.153C0.427,-0.196 0.396,-0.223 0.335,-0.232L0.252,-0.244C0.198,-0.252 0.158,-0.269 0.131,-0.295C0.104,-0.321 0.091,-0.357 0.091,-0.404C0.091,-0.453 0.109,-0.492 0.144,-0.519C0.179,-0.546 0.227,-0.56 0.29,-0.56L0.318,-0.56C0.345,-0.56 0.369,-0.557 0.392,-0.55C0.415,-0.543 0.435,-0.534 0.452,-0.522C0.469,-0.509 0.484,-0.495 0.495,-0.478C0.505,-0.46 0.513,-0.442 0.516,-0.421L0.421,-0.421C0.417,-0.438 0.406,-0.452 0.387,-0.464C0.368,-0.474 0.345,-0.48 0.318,-0.48L0.29,-0.48C0.256,-0.48 0.23,-0.473 0.211,-0.46C0.192,-0.447 0.182,-0.427 0.182,-0.4C0.182,-0.379 0.189,-0.363 0.202,-0.352C0.215,-0.341 0.236,-0.333 0.265,-0.329L0.348,-0.317C0.407,-0.308 0.451,-0.291 0.478,-0.265C0.505,-0.239 0.518,-0.202 0.518,-0.154C0.518,-0.103 0.5,-0.063 0.465,-0.034C0.429,-0.005 0.378,0.01 0.313,0.01L0.285,0.01Z" style="fill:rgb(217,115,23);fill-rule:nonzero;"/>
        </g>
        <g transform="matrix(103.445,0,0,103.445,180.471,357.896)">
            <path d="M0.15,-0.55L0.276,-0.234C0.282,-0.219 0.287,-0.204 0.291,-0.191C0.294,-0.178 0.297,-0.166 0.299,-0.156C0.302,-0.143 0.303,-0.132 0.304,-0.122L0.311,-0.122C0.312,-0.132 0.313,-0.143 0.316,-0.155C0.318,-0.166 0.321,-0.178 0.324,-0.191C0.327,-0.204 0.332,-0.219 0.337,-0.234L0.453,-0.55L0.55,-0.55L0.283,0.165L0.187,0.165L0.263,-0.04L0.05,-0.55L0.15,-0.55Z" style="fill:rgb(217,115,23);fill-rule:nonzero;"/>
        </g>
        <g transform="matrix(103.445,0,0,103.445,242.538,357.896)">
            <path d="M0.088,0L0.088,-0.55L0.173,-0.55L0.173,-0.455L0.181,-0.455C0.19,-0.488 0.207,-0.514 0.234,-0.533C0.26,-0.551 0.293,-0.56 0.332,-0.56C0.359,-0.56 0.384,-0.555 0.407,-0.546C0.429,-0.537 0.448,-0.524 0.464,-0.507C0.479,-0.49 0.491,-0.469 0.5,-0.446C0.509,-0.422 0.513,-0.395 0.513,-0.366L0.513,0L0.423,0L0.423,-0.351C0.423,-0.393 0.412,-0.426 0.391,-0.449C0.37,-0.472 0.34,-0.484 0.302,-0.484C0.264,-0.484 0.234,-0.471 0.212,-0.447C0.189,-0.422 0.178,-0.388 0.178,-0.345L0.178,0L0.088,0Z" style="fill:rgb(217,115,23);fill-rule:nonzero;"/>
        </g>
        <g transform="matrix(103.445,0,0,103.445,304.605,357.896)">
            <path d="M0.308,0.01C0.274,0.01 0.244,0.005 0.217,-0.005C0.19,-0.015 0.166,-0.029 0.148,-0.048C0.129,-0.067 0.114,-0.089 0.104,-0.116C0.093,-0.143 0.088,-0.172 0.088,-0.205L0.088,-0.345C0.088,-0.378 0.093,-0.407 0.104,-0.434C0.114,-0.461 0.129,-0.483 0.148,-0.502C0.166,-0.521 0.19,-0.535 0.217,-0.545C0.244,-0.555 0.274,-0.56 0.308,-0.56C0.369,-0.56 0.419,-0.544 0.458,-0.511C0.497,-0.478 0.52,-0.432 0.528,-0.375L0.438,-0.375C0.433,-0.407 0.419,-0.432 0.396,-0.452C0.372,-0.47 0.343,-0.48 0.308,-0.48C0.268,-0.48 0.236,-0.468 0.213,-0.444C0.19,-0.42 0.178,-0.387 0.178,-0.345L0.178,-0.205C0.178,-0.163 0.19,-0.13 0.213,-0.106C0.236,-0.082 0.267,-0.07 0.308,-0.07C0.343,-0.07 0.372,-0.08 0.396,-0.099C0.419,-0.118 0.433,-0.143 0.438,-0.175L0.528,-0.175C0.519,-0.117 0.496,-0.072 0.457,-0.039C0.418,-0.006 0.368,0.01 0.308,0.01Z" style="fill:rgb(217,115,23);fill-rule:nonzero;"/>
        </g>
        <g transform="matrix(103.445,0,0,103.445,428.739,357.896)">
            <path d="M0.06,-0.413L0.06,-0.495L0.22,-0.495L0.22,-0.59C0.22,-0.634 0.234,-0.668 0.261,-0.693C0.288,-0.718 0.326,-0.73 0.374,-0.73L0.535,-0.73L0.535,-0.648L0.374,-0.648C0.331,-0.648 0.31,-0.629 0.31,-0.59L0.31,-0.495L0.535,-0.495L0.535,-0.413L0.31,-0.413L0.31,0L0.22,0L0.22,-0.413L0.06,-0.413Z" style="fill:rgb(217,115,23);fill-rule:nonzero;"/>
        </g>
        <g transform="matrix(103.445,0,0,103.445,490.807,357.896)">
            <path d="M0.088,0L0.088,-0.55L0.173,-0.55L0.173,-0.455L0.181,-0.455C0.19,-0.488 0.207,-0.514 0.234,-0.533C0.26,-0.551 0.293,-0.56 0.332,-0.56C0.359,-0.56 0.384,-0.555 0.407,-0.546C0.429,-0.537 0.448,-0.524 0.464,-0.507C0.479,-0.49 0.491,-0.469 0.5,-0.446C0.509,-0.422 0.513,-0.395 0.513,-0.366L0.513,0L0.423,0L0.423,-0.351C0.423,-0.393 0.412,-0.426 0.391,-0.449C0.37,-0.472 0.34,-0.484 0.302,-0.484C0.264,-0.484 0.234,-0.471 0.212,-0.447C0.189,-0.422 0.178,-0.388 0.178,-0.345L0.178,0L0.088,0Z" style="fill:rgb(217,115,23);fill-rule:nonzero;"/>
        </g>
        <g transform="matrix(103.445,0,0,103.445,614.941,357.896)">
            <path d="M0.073,-0.35C0.073,-0.382 0.077,-0.411 0.086,-0.437C0.095,-0.463 0.107,-0.485 0.124,-0.503C0.14,-0.521 0.16,-0.535 0.183,-0.545C0.206,-0.555 0.232,-0.56 0.261,-0.56C0.301,-0.56 0.335,-0.551 0.363,-0.532C0.391,-0.513 0.41,-0.485 0.42,-0.45L0.427,-0.45L0.427,-0.55L0.512,-0.55L0.512,-0.04C0.512,0.025 0.493,0.075 0.455,0.111C0.417,0.147 0.364,0.165 0.295,0.165L0.16,0.165L0.16,0.083L0.295,0.083C0.335,0.083 0.366,0.072 0.389,0.051C0.411,0.03 0.422,-0.001 0.422,-0.04L0.422,-0.06L0.426,-0.16L0.42,-0.16C0.41,-0.125 0.391,-0.097 0.363,-0.079C0.335,-0.059 0.301,-0.05 0.261,-0.05C0.232,-0.05 0.206,-0.055 0.184,-0.065C0.161,-0.075 0.141,-0.089 0.125,-0.107C0.108,-0.125 0.096,-0.147 0.087,-0.173C0.078,-0.199 0.073,-0.228 0.073,-0.26L0.073,-0.35ZM0.165,-0.26C0.165,-0.219 0.177,-0.186 0.2,-0.163C0.223,-0.14 0.254,-0.128 0.294,-0.128C0.334,-0.128 0.365,-0.14 0.388,-0.163C0.411,-0.186 0.422,-0.219 0.422,-0.26L0.422,-0.35C0.422,-0.391 0.411,-0.424 0.388,-0.447C0.365,-0.47 0.334,-0.482 0.294,-0.482C0.254,-0.482 0.223,-0.47 0.2,-0.447C0.177,-0.424 0.165,-0.391 0.165,-0.35L0.165,-0.26Z" style="fill:rgb(166,183,200);fill-rule:nonzero;"/>
        </g>
        <g transform="matrix(103.445,0,0,103.445,677.008,357.896)">
            <path d="M0.3,0.01C0.231,0.01 0.178,-0.009 0.139,-0.046C0.099,-0.083 0.08,-0.135 0.08,-0.2L0.08,-0.35C0.08,-0.415 0.099,-0.467 0.139,-0.504C0.178,-0.541 0.231,-0.56 0.3,-0.56C0.369,-0.56 0.423,-0.541 0.462,-0.504C0.501,-0.467 0.52,-0.415 0.52,-0.35L0.52,-0.249L0.17,-0.249L0.17,-0.205C0.17,-0.163 0.182,-0.13 0.205,-0.106C0.228,-0.082 0.259,-0.07 0.3,-0.07C0.33,-0.07 0.356,-0.075 0.378,-0.084C0.4,-0.093 0.416,-0.107 0.427,-0.125L0.517,-0.125C0.506,-0.083 0.481,-0.05 0.442,-0.026C0.403,-0.002 0.355,0.01 0.3,0.01ZM0.43,-0.324L0.43,-0.35C0.43,-0.391 0.419,-0.423 0.396,-0.446C0.373,-0.469 0.341,-0.48 0.3,-0.48C0.259,-0.48 0.227,-0.469 0.204,-0.446C0.181,-0.423 0.17,-0.391 0.17,-0.35L0.17,-0.324L0.43,-0.324Z" style="fill:rgb(166,183,200);fill-rule:nonzero;"/>
        </g>
        <g transform="matrix(103.445,0,0,103.445,739.075,357.896)">
            <path d="M0.06,-0.55L0.22,-0.55L0.22,-0.72L0.31,-0.72L0.31,-0.55L0.525,-0.55L0.525,-0.468L0.31,-0.468L0.31,-0.142C0.31,-0.123 0.316,-0.109 0.328,-0.098C0.339,-0.087 0.355,-0.082 0.375,-0.082L0.515,-0.082L0.515,0L0.375,0C0.328,0 0.29,-0.013 0.262,-0.039C0.234,-0.065 0.22,-0.099 0.22,-0.142L0.22,-0.468L0.06,-0.468L0.06,-0.55Z" style="fill:rgb(166,183,200);fill-rule:nonzero;"/>
        </g>
        <g transform="matrix(103.445,0,0,103.445,801.143,357.896)">
            <rect x="0.06" y="0.025" width="0.48" height="0.075" style="fill:rgb(166,183,200);fill-rule:nonzero;"/>
        </g>
        <g transform="matrix(103.445,0,0,103.445,863.21,357.896)">
            <path d="M0.09,-0.55L0.18,-0.55L0.18,-0.194C0.18,-0.111 0.22,-0.069 0.299,-0.069C0.38,-0.069 0.42,-0.111 0.42,-0.194L0.42,-0.55L0.51,-0.55L0.51,-0.194C0.51,-0.129 0.492,-0.078 0.456,-0.043C0.419,-0.008 0.367,0.01 0.299,0.01C0.232,0.01 0.181,-0.008 0.145,-0.044C0.108,-0.079 0.09,-0.129 0.09,-0.194L0.09,-0.55Z" style="fill:rgb(166,183,200);fill-rule:nonzero;"/>
        </g>
        <g transform="matrix(103.445,0,0,103.445,925.277,357.896)">
            <path d="M0.285,0.01C0.227,0.01 0.179,-0.003 0.142,-0.03C0.104,-0.056 0.082,-0.091 0.077,-0.135L0.172,-0.135C0.176,-0.116 0.188,-0.1 0.209,-0.088C0.23,-0.076 0.255,-0.07 0.285,-0.07L0.313,-0.07C0.349,-0.07 0.377,-0.078 0.397,-0.093C0.417,-0.108 0.427,-0.128 0.427,-0.153C0.427,-0.196 0.396,-0.223 0.335,-0.232L0.252,-0.244C0.198,-0.252 0.158,-0.269 0.131,-0.295C0.104,-0.321 0.091,-0.357 0.091,-0.404C0.091,-0.453 0.109,-0.492 0.144,-0.519C0.179,-0.546 0.227,-0.56 0.29,-0.56L0.318,-0.56C0.345,-0.56 0.369,-0.557 0.392,-0.55C0.415,-0.543 0.435,-0.534 0.452,-0.522C0.469,-0.509 0.484,-0.495 0.495,-0.478C0.505,-0.46 0.513,-0.442 0.516,-0.421L0.421,-0.421C0.417,-0.438 0.406,-0.452 0.387,-0.464C0.368,-0.474 0.345,-0.48 0.318,-0.48L0.29,-0.48C0.256,-0.48 0.23,-0.473 0.211,-0.46C0.192,-0.447 0.182,-0.427 0.182,-0.4C0.182,-0.379 0.189,-0.363 0.202,-0.352C0.215,-0.341 0.236,-0.333 0.265,-0.329L0.348,-0.317C0.407,-0.308 0.451,-0.291 0.478,-0.265C0.505,-0.239 0.518,-0.202 0.518,-0.154C0.518,-0.103 0.5,-0.063 0.465,-0.034C0.429,-0.005 0.378,0.01 0.313,0.01L0.285,0.01Z" style="fill:rgb(166,183,200);fill-rule:nonzero;"/>
        </g>
        <g transform="matrix(103.445,0,0,103.445,987.344,357.896)">
            <path d="M0.3,0.01C0.231,0.01 0.178,-0.009 0.139,-0.046C0.099,-0.083 0.08,-0.135 0.08,-0.2L0.08,-0.35C0.08,-0.415 0.099,-0.467 0.139,-0.504C0.178,-0.541 0.231,-0.56 0.3,-0.56C0.369,-0.56 0.423,-0.541 0.462,-0.504C0.501,-0.467 0.52,-0.415 0.52,-0.35L0.52,-0.249L0.17,-0.249L0.17,-0.205C0.17,-0.163 0.182,-0.13 0.205,-0.106C0.228,-0.082 0.259,-0.07 0.3,-0.07C0.33,-0.07 0.356,-0.075 0.378,-0.084C0.4,-0.093 0.416,-0.107 0.427,-0.125L0.517,-0.125C0.506,-0.083 0.481,-0.05 0.442,-0.026C0.403,-0.002 0.355,0.01 0.3,0.01ZM0.43,-0.324L0.43,-0.35C0.43,-0.391 0.419,-0.423 0.396,-0.446C0.373,-0.469 0.341,-0.48 0.3,-0.48C0.259,-0.48 0.227,-0.469 0.204,-0.446C0.181,-0.423 0.17,-0.391 0.17,-0.35L0.17,-0.324L0.43,-0.324Z" style="fill:rgb(166,183,200);fill-rule:nonzero;"/>
        </g>
        <g transform="matrix(103.445,0,0,103.445,1049.41,357.896)">
            <path d="M0.112,-0.55L0.197,-0.55L0.197,-0.455L0.205,-0.455C0.214,-0.488 0.232,-0.513 0.259,-0.532C0.286,-0.551 0.32,-0.56 0.36,-0.56C0.418,-0.56 0.464,-0.542 0.497,-0.506C0.53,-0.469 0.546,-0.419 0.546,-0.356L0.546,-0.325L0.456,-0.325L0.456,-0.345C0.456,-0.388 0.445,-0.422 0.424,-0.446C0.402,-0.469 0.371,-0.481 0.331,-0.481C0.292,-0.481 0.26,-0.469 0.237,-0.445C0.214,-0.42 0.202,-0.387 0.202,-0.345L0.202,0L0.112,0L0.112,-0.55Z" style="fill:rgb(166,183,200);fill-rule:nonzero;"/>
        </g>
        <g transform="matrix(103.445,0,0,103.445,1111.48,357.896)">
            <path d="M0.185,-0.455C0.185,-0.504 0.192,-0.549 0.206,-0.592C0.22,-0.634 0.24,-0.672 0.266,-0.706C0.292,-0.739 0.323,-0.768 0.361,-0.792C0.398,-0.816 0.439,-0.834 0.485,-0.845L0.485,-0.76C0.453,-0.753 0.424,-0.74 0.398,-0.722C0.372,-0.704 0.35,-0.682 0.332,-0.655C0.314,-0.628 0.3,-0.598 0.29,-0.565C0.28,-0.531 0.275,-0.494 0.275,-0.455L0.275,-0.265C0.275,-0.226 0.28,-0.19 0.29,-0.157C0.299,-0.124 0.313,-0.094 0.332,-0.068C0.35,-0.042 0.372,-0.02 0.398,-0.002C0.424,0.016 0.453,0.029 0.485,0.036L0.485,0.125C0.438,0.113 0.396,0.095 0.359,0.072C0.321,0.049 0.29,0.02 0.265,-0.013C0.239,-0.046 0.219,-0.084 0.206,-0.127C0.192,-0.169 0.185,-0.215 0.185,-0.265L0.185,-0.455Z" style="fill:rgb(166,183,200);fill-rule:nonzero;"/>
        </g>
        <g transform="matrix(103.445,0,0,103.445,1173.55,357.896)">
            <path d="M0.115,0.036C0.147,0.029 0.176,0.016 0.202,-0.002C0.228,-0.02 0.25,-0.042 0.269,-0.068C0.287,-0.094 0.301,-0.124 0.311,-0.157C0.32,-0.19 0.325,-0.226 0.325,-0.265L0.325,-0.455C0.325,-0.494 0.32,-0.531 0.31,-0.565C0.3,-0.598 0.286,-0.628 0.268,-0.655C0.25,-0.682 0.228,-0.704 0.202,-0.722C0.176,-0.74 0.147,-0.753 0.115,-0.76L0.115,-0.845C0.161,-0.834 0.203,-0.816 0.24,-0.792C0.277,-0.768 0.308,-0.739 0.334,-0.706C0.36,-0.672 0.38,-0.634 0.394,-0.592C0.408,-0.549 0.415,-0.504 0.415,-0.455L0.415,-0.265C0.415,-0.215 0.408,-0.169 0.395,-0.127C0.381,-0.084 0.361,-0.046 0.336,-0.013C0.31,0.02 0.278,0.049 0.242,0.072C0.204,0.095 0.162,0.113 0.115,0.125L0.115,0.036Z" style="fill:rgb(166,183,200);fill-rule:nonzero;"/>
        </g>
        <g transform="matrix(103.445,0,0,103.445,1297.68,357.896)">
            <path d="M0.085,-0.319L0.085,-0.399L0.195,-0.399C0.216,-0.399 0.234,-0.401 0.248,-0.405C0.261,-0.408 0.272,-0.414 0.279,-0.422C0.286,-0.43 0.291,-0.44 0.294,-0.453C0.296,-0.466 0.296,-0.481 0.295,-0.499L0.285,-0.664C0.284,-0.69 0.287,-0.713 0.295,-0.734C0.303,-0.755 0.315,-0.772 0.331,-0.787C0.347,-0.801 0.367,-0.812 0.391,-0.819C0.414,-0.826 0.441,-0.83 0.47,-0.83L0.515,-0.83L0.515,-0.75L0.47,-0.75C0.438,-0.75 0.414,-0.743 0.398,-0.729C0.381,-0.714 0.374,-0.693 0.375,-0.664L0.385,-0.499C0.386,-0.481 0.385,-0.464 0.38,-0.448C0.375,-0.431 0.368,-0.417 0.359,-0.405C0.349,-0.392 0.337,-0.382 0.322,-0.375C0.307,-0.368 0.29,-0.364 0.27,-0.363L0.27,-0.358C0.29,-0.357 0.308,-0.353 0.323,-0.346C0.338,-0.338 0.35,-0.328 0.359,-0.315C0.368,-0.302 0.375,-0.288 0.38,-0.271C0.385,-0.254 0.386,-0.237 0.385,-0.219L0.375,-0.056C0.374,-0.027 0.381,-0.006 0.398,0.009C0.414,0.023 0.438,0.03 0.47,0.03L0.515,0.03L0.515,0.11L0.47,0.11C0.441,0.11 0.414,0.106 0.391,0.099C0.367,0.092 0.347,0.081 0.331,0.067C0.315,0.052 0.303,0.035 0.295,0.014C0.287,-0.007 0.284,-0.03 0.285,-0.056L0.295,-0.219C0.296,-0.237 0.296,-0.252 0.294,-0.265C0.291,-0.278 0.286,-0.288 0.279,-0.296C0.272,-0.304 0.261,-0.31 0.248,-0.314C0.235,-0.317 0.217,-0.319 0.195,-0.319L0.085,-0.319Z" style="fill:rgb(166,183,200);fill-rule:nonzero;"/>
        </g>
        <g transform="matrix(103.445,0,0,103.445,1483.88,357.896)">
            <path d="M-0.885,-0.079C-0.885,-0.105 -0.877,-0.126 -0.862,-0.142C-0.846,-0.157 -0.825,-0.165 -0.799,-0.165C-0.773,-0.165 -0.752,-0.157 -0.737,-0.142C-0.721,-0.126 -0.713,-0.105 -0.713,-0.079C-0.713,-0.052 -0.721,-0.031 -0.737,-0.015C-0.752,0.002 -0.773,0.01 -0.799,0.01C-0.825,0.01 -0.846,0.002 -0.862,-0.015C-0.877,-0.031 -0.885,-0.052 -0.885,-0.079ZM-0.386,-0.079C-0.386,-0.105 -0.378,-0.126 -0.363,-0.142C-0.347,-0.157 -0.326,-0.165 -0.3,-0.165C-0.274,-0.165 -0.253,-0.157 -0.238,-0.142C-0.222,-0.126 -0.214,-0.105 -0.214,-0.079C-0.214,-0.052 -0.222,-0.031 -0.238,-0.015C-0.253,0.002 -0.274,0.01 -0.3,0.01C-0.326,0.01 -0.347,0.002 -0.363,-0.015C-0.378,-0.031 -0.386,-0.052 -0.386,-0.079ZM0.113,-0.079C0.113,-0.105 0.121,-0.126 0.137,-0.142C0.152,-0.157 0.173,-0.165 0.199,-0.165C0.225,-0.165 0.246,-0.157 0.262,-0.142C0.277,-0.126 0.285,-0.105 0.285,-0.079C0.285,-0.052 0.277,-0.031 0.262,-0.015C0.246,0.002 0.225,0.01 0.199,0.01C0.173,0.01 0.152,0.002 0.137,-0.015C0.121,-0.031 0.113,-0.052 0.113,-0.079Z" style="fill:rgb(166,183,200);fill-rule:nonzero;"/>
        </g>
        <g transform="matrix(103.445,0,0,103.445,1545.95,357.896)">
            <path d="M0.085,0.11L0.085,0.03L0.13,0.03C0.162,0.03 0.186,0.023 0.203,0.009C0.219,-0.006 0.226,-0.027 0.225,-0.056L0.215,-0.22C0.214,-0.238 0.216,-0.255 0.221,-0.272C0.225,-0.288 0.232,-0.302 0.242,-0.315C0.251,-0.327 0.263,-0.337 0.278,-0.344C0.293,-0.351 0.31,-0.355 0.33,-0.356L0.33,-0.361C0.31,-0.362 0.293,-0.366 0.278,-0.374C0.263,-0.381 0.25,-0.391 0.241,-0.404C0.232,-0.417 0.225,-0.431 0.221,-0.448C0.216,-0.465 0.214,-0.482 0.215,-0.5L0.225,-0.664C0.226,-0.693 0.219,-0.714 0.203,-0.729C0.186,-0.743 0.162,-0.75 0.13,-0.75L0.085,-0.75L0.085,-0.83L0.13,-0.83C0.159,-0.83 0.186,-0.826 0.21,-0.819C0.233,-0.812 0.253,-0.801 0.269,-0.787C0.285,-0.772 0.297,-0.755 0.305,-0.734C0.313,-0.713 0.316,-0.69 0.315,-0.664L0.305,-0.5C0.304,-0.482 0.305,-0.467 0.307,-0.454C0.309,-0.441 0.314,-0.431 0.321,-0.423C0.328,-0.415 0.339,-0.409 0.352,-0.406C0.365,-0.402 0.383,-0.4 0.405,-0.4L0.515,-0.4L0.515,-0.32L0.405,-0.32C0.384,-0.32 0.366,-0.318 0.353,-0.315C0.339,-0.311 0.328,-0.305 0.321,-0.297C0.314,-0.289 0.309,-0.279 0.307,-0.266C0.305,-0.253 0.304,-0.238 0.305,-0.22L0.315,-0.056C0.316,-0.03 0.313,-0.007 0.305,0.014C0.297,0.035 0.285,0.052 0.269,0.067C0.253,0.081 0.233,0.092 0.21,0.099C0.186,0.106 0.159,0.11 0.13,0.11L0.085,0.11Z" style="fill:rgb(166,183,200);fill-rule:nonzero;"/>
        </g>
    </g>
    <g transform="matrix(0.51649,0,0,0.51649,94.1867,234.223)">
        <g transform="matrix(103.445,0,0,103.445,118.403,254.45)">
            <path d="M-0.468,-0.265L-0.432,-0.455L-0.531,-0.455L-0.531,-0.52L-0.42,-0.52L-0.383,-0.72L-0.313,-0.72L-0.35,-0.52L-0.19,-0.52L-0.153,-0.72L-0.083,-0.72L-0.12,-0.52L0.21,-0.52L0.21,-0.83L0.455,-0.83L0.455,-0.75L0.3,-0.75L0.3,0.03L0.455,0.03L0.455,0.11L0.21,0.11L0.21,-0.2L-0.18,-0.2L-0.217,0L-0.287,0L-0.25,-0.2L-0.41,-0.2L-0.447,0L-0.517,0L-0.48,-0.2L-0.565,-0.2L-0.565,-0.265L-0.468,-0.265ZM0.21,-0.265L0.21,-0.455L-0.132,-0.455L-0.168,-0.265L0.21,-0.265ZM-0.398,-0.265L-0.238,-0.265L-0.202,-0.455L-0.362,-0.455L-0.398,-0.265Z" style="fill:rgb(188,182,0);fill-rule:nonzero;"/>
        </g>
        <g transform="matrix(103.445,0,0,103.445,182.54,254.45)">
            <path d="M0.173,-0.55L0.173,-0.455L0.181,-0.455C0.19,-0.488 0.207,-0.514 0.234,-0.533C0.261,-0.551 0.294,-0.56 0.335,-0.56C0.363,-0.56 0.388,-0.555 0.411,-0.545C0.434,-0.535 0.453,-0.521 0.469,-0.503C0.485,-0.484 0.498,-0.462 0.507,-0.435C0.516,-0.408 0.52,-0.378 0.52,-0.345L0.52,-0.205C0.52,-0.172 0.516,-0.142 0.507,-0.115C0.498,-0.088 0.485,-0.066 0.469,-0.048C0.453,-0.029 0.434,-0.015 0.411,-0.005C0.388,0.005 0.363,0.01 0.335,0.01C0.294,0.01 0.261,0.001 0.234,-0.018C0.207,-0.036 0.19,-0.062 0.181,-0.095L0.173,-0.095C0.174,-0.084 0.175,-0.072 0.176,-0.061C0.177,-0.051 0.177,-0.041 0.178,-0.03C0.178,-0.019 0.178,-0.009 0.178,0L0.178,0.165L0.088,0.165L0.088,-0.55L0.173,-0.55ZM0.178,-0.205C0.178,-0.163 0.189,-0.13 0.212,-0.105C0.234,-0.08 0.264,-0.068 0.301,-0.068C0.341,-0.068 0.373,-0.08 0.396,-0.105C0.419,-0.13 0.43,-0.163 0.43,-0.205L0.43,-0.345C0.43,-0.388 0.419,-0.422 0.396,-0.446C0.373,-0.47 0.342,-0.482 0.301,-0.482C0.264,-0.482 0.234,-0.47 0.212,-0.445C0.189,-0.42 0.178,-0.387 0.178,-0.345L0.178,-0.205Z" style="fill:rgb(188,182,0);fill-rule:nonzero;"/>
        </g>
        <g transform="matrix(103.445,0,0,103.445,244.607,254.45)">
            <path d="M0.17,-0.205C0.17,-0.163 0.182,-0.13 0.205,-0.106C0.228,-0.082 0.259,-0.07 0.3,-0.07C0.34,-0.07 0.372,-0.082 0.395,-0.106C0.418,-0.13 0.43,-0.163 0.43,-0.205L0.43,-0.345C0.43,-0.387 0.418,-0.42 0.395,-0.444C0.372,-0.468 0.34,-0.48 0.3,-0.48C0.26,-0.48 0.228,-0.468 0.205,-0.444C0.182,-0.42 0.17,-0.387 0.17,-0.345L0.17,-0.205ZM0.08,-0.345C0.08,-0.378 0.085,-0.408 0.096,-0.435C0.106,-0.461 0.121,-0.483 0.14,-0.502C0.159,-0.521 0.182,-0.535 0.209,-0.545C0.236,-0.555 0.266,-0.56 0.3,-0.56C0.368,-0.56 0.422,-0.541 0.461,-0.503C0.5,-0.465 0.52,-0.413 0.52,-0.346L0.52,-0.205C0.52,-0.172 0.515,-0.142 0.505,-0.115C0.495,-0.088 0.481,-0.066 0.462,-0.048C0.443,-0.029 0.419,-0.015 0.392,-0.005C0.365,0.005 0.334,0.01 0.3,0.01C0.266,0.01 0.236,0.005 0.209,-0.005C0.182,-0.015 0.159,-0.029 0.14,-0.048C0.121,-0.067 0.106,-0.089 0.096,-0.116C0.085,-0.143 0.08,-0.172 0.08,-0.205L0.08,-0.345Z" style="fill:rgb(188,182,0);fill-rule:nonzero;"/>
        </g>
        <g transform="matrix(103.445,0,0,103.445,306.674,254.45)">
            <path d="M0.285,0.01C0.227,0.01 0.179,-0.003 0.142,-0.03C0.104,-0.056 0.082,-0.091 0.077,-0.135L0.172,-0.135C0.176,-0.116 0.188,-0.1 0.209,-0.088C0.23,-0.076 0.255,-0.07 0.285,-0.07L0.313,-0.07C0.349,-0.07 0.377,-0.078 0.397,-0.093C0.417,-0.108 0.427,-0.128 0.427,-0.153C0.427,-0.196 0.396,-0.223 0.335,-0.232L0.252,-0.244C0.198,-0.252 0.158,-0.269 0.131,-0.295C0.104,-0.321 0.091,-0.357 0.091,-0.404C0.091,-0.453 0.109,-0.492 0.144,-0.519C0.179,-0.546 0.227,-0.56 0.29,-0.56L0.318,-0.56C0.345,-0.56 0.369,-0.557 0.392,-0.55C0.415,-0.543 0.435,-0.534 0.452,-0.522C0.469,-0.509 0.484,-0.495 0.495,-0.478C0.505,-0.46 0.513,-0.442 0.516,-0.421L0.421,-0.421C0.417,-0.438 0.406,-0.452 0.387,-0.464C0.368,-0.474 0.345,-0.48 0.318,-0.48L0.29,-0.48C0.256,-0.48 0.23,-0.473 0.211,-0.46C0.192,-0.447 0.182,-0.427 0.182,-0.4C0.182,-0.379 0.189,-0.363 0.202,-0.352C0.215,-0.341 0.236,-0.333 0.265,-0.329L0.348,-0.317C0.407,-0.308 0.451,-0.291 0.478,-0.265C0.505,-0.239 0.518,-0.202 0.518,-0.154C0.518,-0.103 0.5,-0.063 0.465,-0.034C0.429,-0.005 0.378,0.01 0.313,0.01L0.285,0.01Z" style="fill:rgb(188,182,0);fill-rule:nonzero;"/>
        </g>
        <g transform="matrix(103.445,0,0,103.445,368.741,254.45)">
            <path d="M0.06,-0.55L0.22,-0.55L0.22,-0.72L0.31,-0.72L0.31,-0.55L0.525,-0.55L0.525,-0.468L0.31,-0.468L0.31,-0.142C0.31,-0.123 0.316,-0.109 0.328,-0.098C0.339,-0.087 0.355,-0.082 0.375,-0.082L0.515,-0.082L0.515,0L0.375,0C0.328,0 0.29,-0.013 0.262,-0.039C0.234,-0.065 0.22,-0.099 0.22,-0.142L0.22,-0.468L0.06,-0.468L0.06,-0.55Z" style="fill:rgb(188,182,0);fill-rule:nonzero;"/>
        </g>
        <g transform="matrix(103.445,0,0,103.445,430.808,254.45)">
            <path d="M0.185,-0.455C0.185,-0.504 0.192,-0.549 0.206,-0.592C0.22,-0.634 0.24,-0.672 0.266,-0.706C0.292,-0.739 0.323,-0.768 0.361,-0.792C0.398,-0.816 0.439,-0.834 0.485,-0.845L0.485,-0.76C0.453,-0.753 0.424,-0.74 0.398,-0.722C0.372,-0.704 0.35,-0.682 0.332,-0.655C0.314,-0.628 0.3,-0.598 0.29,-0.565C0.28,-0.531 0.275,-0.494 0.275,-0.455L0.275,-0.265C0.275,-0.226 0.28,-0.19 0.29,-0.157C0.299,-0.124 0.313,-0.094 0.332,-0.068C0.35,-0.042 0.372,-0.02 0.398,-0.002C0.424,0.016 0.453,0.029 0.485,0.036L0.485,0.125C0.438,0.113 0.396,0.095 0.359,0.072C0.321,0.049 0.29,0.02 0.265,-0.013C0.239,-0.046 0.219,-0.084 0.206,-0.127C0.192,-0.169 0.185,-0.215 0.185,-0.265L0.185,-0.455Z" style="fill:rgb(188,182,0);fill-rule:nonzero;"/>
        </g>
        <g transform="matrix(103.445,0,0,103.445,492.876,254.45)">
            <path d="M0.353,-0.73L0.45,-0.73L0.45,-0.58L0.439,-0.43L0.365,-0.43L0.353,-0.58L0.353,-0.73ZM0.15,-0.58L0.15,-0.73L0.247,-0.73L0.247,-0.58L0.236,-0.43L0.162,-0.43L0.15,-0.58Z" style="fill:rgb(98,137,84);fill-rule:nonzero;"/>
        </g>
        <g transform="matrix(103.445,0,0,103.445,554.943,254.45)">
            <path d="M0.43,-0.83L0.525,-0.83L0.17,0.11L0.075,0.11L0.43,-0.83Z" style="fill:rgb(98,137,84);fill-rule:nonzero;"/>
        </g>
        <g transform="matrix(103.445,0,0,103.445,617.01,254.45)">
            <path d="M0.09,-0.55L0.18,-0.55L0.18,-0.194C0.18,-0.111 0.22,-0.069 0.299,-0.069C0.38,-0.069 0.42,-0.111 0.42,-0.194L0.42,-0.55L0.51,-0.55L0.51,-0.194C0.51,-0.129 0.492,-0.078 0.456,-0.043C0.419,-0.008 0.367,0.01 0.299,0.01C0.232,0.01 0.181,-0.008 0.145,-0.044C0.108,-0.079 0.09,-0.129 0.09,-0.194L0.09,-0.55Z" style="fill:rgb(98,137,84);fill-rule:nonzero;"/>
        </g>
        <g transform="matrix(103.445,0,0,103.445,679.077,254.45)">
            <path d="M0.285,0.01C0.227,0.01 0.179,-0.003 0.142,-0.03C0.104,-0.056 0.082,-0.091 0.077,-0.135L0.172,-0.135C0.176,-0.116 0.188,-0.1 0.209,-0.088C0.23,-0.076 0.255,-0.07 0.285,-0.07L0.313,-0.07C0.349,-0.07 0.377,-0.078 0.397,-0.093C0.417,-0.108 0.427,-0.128 0.427,-0.153C0.427,-0.196 0.396,-0.223 0.335,-0.232L0.252,-0.244C0.198,-0.252 0.158,-0.269 0.131,-0.295C0.104,-0.321 0.091,-0.357 0.091,-0.404C0.091,-0.453 0.109,-0.492 0.144,-0.519C0.179,-0.546 0.227,-0.56 0.29,-0.56L0.318,-0.56C0.345,-0.56 0.369,-0.557 0.392,-0.55C0.415,-0.543 0.435,-0.534 0.452,-0.522C0.469,-0.509 0.484,-0.495 0.495,-0.478C0.505,-0.46 0.513,-0.442 0.516,-0.421L0.421,-0.421C0.417,-0.438 0.406,-0.452 0.387,-0.464C0.368,-0.474 0.345,-0.48 0.318,-0.48L0.29,-0.48C0.256,-0.48 0.23,-0.473 0.211,-0.46C0.192,-0.447 0.182,-0.427 0.182,-0.4C0.182,-0.379 0.189,-0.363 0.202,-0.352C0.215,-0.341 0.236,-0.333 0.265,-0.329L0.348,-0.317C0.407,-0.308 0.451,-0.291 0.478,-0.265C0.505,-0.239 0.518,-0.202 0.518,-0.154C0.518,-0.103 0.5,-0.063 0.465,-0.034C0.429,-0.005 0.378,0.01 0.313,0.01L0.285,0.01Z" style="fill:rgb(98,137,84);fill-rule:nonzero;"/>
        </g>
        <g transform="matrix(103.445,0,0,103.445,741.144,254.45)">
            <path d="M0.3,0.01C0.231,0.01 0.178,-0.009 0.139,-0.046C0.099,-0.083 0.08,-0.135 0.08,-0.2L0.08,-0.35C0.08,-0.415 0.099,-0.467 0.139,-0.504C0.178,-0.541 0.231,-0.56 0.3,-0.56C0.369,-0.56 0.423,-0.541 0.462,-0.504C0.501,-0.467 0.52,-0.415 0.52,-0.35L0.52,-0.249L0.17,-0.249L0.17,-0.205C0.17,-0.163 0.182,-0.13 0.205,-0.106C0.228,-0.082 0.259,-0.07 0.3,-0.07C0.33,-0.07 0.356,-0.075 0.378,-0.084C0.4,-0.093 0.416,-0.107 0.427,-0.125L0.517,-0.125C0.506,-0.083 0.481,-0.05 0.442,-0.026C0.403,-0.002 0.355,0.01 0.3,0.01ZM0.43,-0.324L0.43,-0.35C0.43,-0.391 0.419,-0.423 0.396,-0.446C0.373,-0.469 0.341,-0.48 0.3,-0.48C0.259,-0.48 0.227,-0.469 0.204,-0.446C0.181,-0.423 0.17,-0.391 0.17,-0.35L0.17,-0.324L0.43,-0.324Z" style="fill:rgb(98,137,84);fill-rule:nonzero;"/>
        </g>
        <g transform="matrix(103.445,0,0,103.445,803.212,254.45)">
            <path d="M0.112,-0.55L0.197,-0.55L0.197,-0.455L0.205,-0.455C0.214,-0.488 0.232,-0.513 0.259,-0.532C0.286,-0.551 0.32,-0.56 0.36,-0.56C0.418,-0.56 0.464,-0.542 0.497,-0.506C0.53,-0.469 0.546,-0.419 0.546,-0.356L0.546,-0.325L0.456,-0.325L0.456,-0.345C0.456,-0.388 0.445,-0.422 0.424,-0.446C0.402,-0.469 0.371,-0.481 0.331,-0.481C0.292,-0.481 0.26,-0.469 0.237,-0.445C0.214,-0.42 0.202,-0.387 0.202,-0.345L0.202,0L0.112,0L0.112,-0.55Z" style="fill:rgb(98,137,84);fill-rule:nonzero;"/>
        </g>
        <g transform="matrix(103.445,0,0,103.445,865.279,254.45)">
            <path d="M0.353,-0.73L0.45,-0.73L0.45,-0.58L0.439,-0.43L0.365,-0.43L0.353,-0.58L0.353,-0.73ZM0.15,-0.58L0.15,-0.73L0.247,-0.73L0.247,-0.58L0.236,-0.43L0.162,-0.43L0.15,-0.58Z" style="fill:rgb(97,135,83);fill-rule:nonzero;"/>
        </g>
        <g transform="matrix(103.445,0,0,103.445,927.346,254.45)">
            <path d="M0.115,0.036C0.147,0.029 0.176,0.016 0.202,-0.002C0.228,-0.02 0.25,-0.042 0.269,-0.068C0.287,-0.094 0.301,-0.124 0.311,-0.157C0.32,-0.19 0.325,-0.226 0.325,-0.265L0.325,-0.455C0.325,-0.494 0.32,-0.531 0.31,-0.565C0.3,-0.598 0.286,-0.628 0.268,-0.655C0.25,-0.682 0.228,-0.704 0.202,-0.722C0.176,-0.74 0.147,-0.753 0.115,-0.76L0.115,-0.845C0.161,-0.834 0.203,-0.816 0.24,-0.792C0.277,-0.768 0.308,-0.739 0.334,-0.706C0.36,-0.672 0.38,-0.634 0.394,-0.592C0.408,-0.549 0.415,-0.504 0.415,-0.455L0.415,-0.265C0.415,-0.215 0.408,-0.169 0.395,-0.127C0.381,-0.084 0.361,-0.046 0.336,-0.013C0.31,0.02 0.278,0.049 0.242,0.072C0.204,0.095 0.162,0.113 0.115,0.125L0.115,0.036Z" style="fill:rgb(188,182,0);fill-rule:nonzero;"/>
        </g>
        <g transform="matrix(103.445,0,0,103.445,989.413,254.45)">
            <path d="M0.15,0.11L0.15,0.03L0.305,0.03L0.305,-0.75L0.15,-0.75L0.15,-0.83L0.395,-0.83L0.395,0.11L0.15,0.11Z" style="fill:rgb(188,182,0);fill-rule:nonzero;"/>
        </g>
        <g transform="matrix(103.445,0,0,103.445,56.3362,357.896)">
            <path d="M0.063,-0.16C0.063,-0.186 0.068,-0.21 0.077,-0.231C0.086,-0.252 0.098,-0.269 0.116,-0.284C0.133,-0.299 0.153,-0.31 0.177,-0.318C0.201,-0.326 0.228,-0.33 0.258,-0.33L0.422,-0.33L0.422,-0.375C0.422,-0.409 0.411,-0.436 0.389,-0.455C0.366,-0.474 0.334,-0.483 0.292,-0.483C0.261,-0.483 0.235,-0.477 0.214,-0.466C0.192,-0.455 0.177,-0.439 0.17,-0.419L0.08,-0.419C0.089,-0.462 0.113,-0.497 0.152,-0.522C0.19,-0.547 0.237,-0.56 0.294,-0.56C0.362,-0.56 0.415,-0.544 0.454,-0.513C0.493,-0.481 0.512,-0.437 0.512,-0.38L0.512,0L0.43,0L0.43,-0.105L0.422,-0.105C0.413,-0.07 0.393,-0.042 0.361,-0.021C0.329,0 0.29,0.01 0.244,0.01C0.189,0.01 0.145,-0.005 0.112,-0.036C0.079,-0.067 0.063,-0.108 0.063,-0.16ZM0.264,-0.064C0.287,-0.064 0.308,-0.067 0.327,-0.073C0.346,-0.079 0.363,-0.088 0.377,-0.099C0.391,-0.11 0.402,-0.122 0.41,-0.137C0.418,-0.152 0.422,-0.168 0.422,-0.185L0.422,-0.26L0.26,-0.26C0.227,-0.26 0.2,-0.251 0.182,-0.234C0.163,-0.217 0.153,-0.193 0.153,-0.162C0.153,-0.131 0.163,-0.107 0.182,-0.09C0.201,-0.073 0.229,-0.064 0.264,-0.064Z" style="fill:rgb(217,115,23);fill-rule:nonzero;"/>
        </g>
        <g transform="matrix(103.445,0,0,103.445,118.403,357.896)">
            <path d="M0.285,0.01C0.227,0.01 0.179,-0.003 0.142,-0.03C0.104,-0.056 0.082,-0.091 0.077,-0.135L0.172,-0.135C0.176,-0.116 0.188,-0.1 0.209,-0.088C0.23,-0.076 0.255,-0.07 0.285,-0.07L0.313,-0.07C0.349,-0.07 0.377,-0.078 0.397,-0.093C0.417,-0.108 0.427,-0.128 0.427,-0.153C0.427,-0.196 0.396,-0.223 0.335,-0.232L0.252,-0.244C0.198,-0.252 0.158,-0.269 0.131,-0.295C0.104,-0.321 0.091,-0.357 0.091,-0.404C0.091,-0.453 0.109,-0.492 0.144,-0.519C0.179,-0.546 0.227,-0.56 0.29,-0.56L0.318,-0.56C0.345,-0.56 0.369,-0.557 0.392,-0.55C0.415,-0.543 0.435,-0.534 0.452,-0.522C0.469,-0.509 0.484,-0.495 0.495,-0.478C0.505,-0.46 0.513,-0.442 0.516,-0.421L0.421,-0.421C0.417,-0.438 0.406,-0.452 0.387,-0.464C0.368,-0.474 0.345,-0.48 0.318,-0.48L0.29,-0.48C0.256,-0.48 0.23,-0.473 0.211,-0.46C0.192,-0.447 0.182,-0.427 0.182,-0.4C0.182,-0.379 0.189,-0.363 0.202,-0.352C0.215,-0.341 0.236,-0.333 0.265,-0.329L0.348,-0.317C0.407,-0.308 0.451,-0.291 0.478,-0.265C0.505,-0.239 0.518,-0.202 0.518,-0.154C0.518,-0.103 0.5,-0.063 0.465,-0.034C0.429,-0.005 0.378,0.01 0.313,0.01L0.285,0.01Z" style="fill:rgb(217,115,23);fill-rule:nonzero;"/>
        </g>
        <g transform="matrix(103.445,0,0,103.445,180.471,357.896)">
            <path d="M0.15,-0.55L0.276,-0.234C0.282,-0.219 0.287,-0.204 0.291,-0.191C0.294,-0.178 0.297,-0.166 0.299,-0.156C0.302,-0.143 0.303,-0.132 0.304,-0.122L0.311,-0.122C0.312,-0.132 0.313,-0.143 0.316,-0.155C0.318,-0.166 0.321,-0.178 0.324,-0.191C0.327,-0.204 0.332,-0.219 0.337,-0.234L0.453,-0.55L0.55,-0.55L0.283,0.165L0.187,0.165L0.263,-0.04L0.05,-0.55L0.15,-0.55Z" style="fill:rgb(217,115,23);fill-rule:nonzero;"/>
        </g>
        <g transform="matrix(103.445,0,0,103.445,242.538,357.896)">
            <path d="M0.088,0L0.088,-0.55L0.173,-0.55L0.173,-0.455L0.181,-0.455C0.19,-0.488 0.207,-0.514 0.234,-0.533C0.26,-0.551 0.293,-0.56 0.332,-0.56C0.359,-0.56 0.384,-0.555 0.407,-0.546C0.429,-0.537 0.448,-0.524 0.464,-0.507C0.479,-0.49 0.491,-0.469 0.5,-0.446C0.509,-0.422 0.513,-0.395 0.513,-0.366L0.513,0L0.423,0L0.423,-0.351C0.423,-0.393 0.412,-0.426 0.391,-0.449C0.37,-0.472 0.34,-0.484 0.302,-0.484C0.264,-0.484 0.234,-0.471 0.212,-0.447C0.189,-0.422 0.178,-0.388 0.178,-0.345L0.178,0L0.088,0Z" style="fill:rgb(217,115,23);fill-rule:nonzero;"/>
        </g>
        <g transform="matrix(103.445,0,0,103.445,304.605,357.896)">
            <path d="M0.308,0.01C0.274,0.01 0.244,0.005 0.217,-0.005C0.19,-0.015 0.166,-0.029 0.148,-0.048C0.129,-0.067 0.114,-0.089 0.104,-0.116C0.093,-0.143 0.088,-0.172 0.088,-0.205L0.088,-0.345C0.088,-0.378 0.093,-0.407 0.104,-0.434C0.114,-0.461 0.129,-0.483 0.148,-0.502C0.166,-0.521 0.19,-0.535 0.217,-0.545C0.244,-0.555 0.274,-0.56 0.308,-0.56C0.369,-0.56 0.419,-0.544 0.458,-0.511C0.497,-0.478 0.52,-0.432 0.528,-0.375L0.438,-0.375C0.433,-0.407 0.419,-0.432 0.396,-0.452C0.372,-0.47 0.343,-0.48 0.308,-0.48C0.268,-0.48 0.236,-0.468 0.213,-0.444C0.19,-0.42 0.178,-0.387 0.178,-0.345L0.178,-0.205C0.178,-0.163 0.19,-0.13 0.213,-0.106C0.236,-0.082 0.267,-0.07 0.308,-0.07C0.343,-0.07 0.372,-0.08 0.396,-0.099C0.419,-0.118 0.433,-0.143 0.438,-0.175L0.528,-0.175C0.519,-0.117 0.496,-0.072 0.457,-0.039C0.418,-0.006 0.368,0.01 0.308,0.01Z" style="fill:rgb(217,115,23);fill-rule:nonzero;"/>
        </g>
        <g transform="matrix(103.445,0,0,103.445,428.739,357.896)">
            <path d="M0.06,-0.413L0.06,-0.495L0.22,-0.495L0.22,-0.59C0.22,-0.634 0.234,-0.668 0.261,-0.693C0.288,-0.718 0.326,-0.73 0.374,-0.73L0.535,-0.73L0.535,-0.648L0.374,-0.648C0.331,-0.648 0.31,-0.629 0.31,-0.59L0.31,-0.495L0.535,-0.495L0.535,-0.413L0.31,-0.413L0.31,0L0.22,0L0.22,-0.413L0.06,-0.413Z" style="fill:rgb(217,115,23);fill-rule:nonzero;"/>
        </g>
        <g transform="matrix(103.445,0,0,103.445,490.807,357.896)">
            <path d="M0.088,0L0.088,-0.55L0.173,-0.55L0.173,-0.455L0.181,-0.455C0.19,-0.488 0.207,-0.514 0.234,-0.533C0.26,-0.551 0.293,-0.56 0.332,-0.56C0.359,-0.56 0.384,-0.555 0.407,-0.546C0.429,-0.537 0.448,-0.524 0.464,-0.507C0.479,-0.49 0.491,-0.469 0.5,-0.446C0.509,-0.422 0.513,-0.395 0.513,-0.366L0.513,0L0.423,0L0.423,-0.351C0.423,-0.393 0.412,-0.426 0.391,-0.449C0.37,-0.472 0.34,-0.484 0.302,-0.484C0.264,-0.484 0.234,-0.471 0.212,-0.447C0.189,-0.422 0.178,-0.388 0.178,-0.345L0.178,0L0.088,0Z" style="fill:rgb(217,115,23);fill-rule:nonzero;"/>
        </g>
        <g transform="matrix(103.445,0,0,103.445,614.941,357.896)">
            <path d="M0.308,0.01C0.274,0.01 0.244,0.005 0.217,-0.005C0.19,-0.015 0.166,-0.029 0.148,-0.048C0.129,-0.067 0.114,-0.089 0.104,-0.116C0.093,-0.143 0.088,-0.172 0.088,-0.205L0.088,-0.345C0.088,-0.378 0.093,-0.407 0.104,-0.434C0.114,-0.461 0.129,-0.483 0.148,-0.502C0.166,-0.521 0.19,-0.535 0.217,-0.545C0.244,-0.555 0.274,-0.56 0.308,-0.56C0.369,-0.56 0.419,-0.544 0.458,-0.511C0.497,-0.478 0.52,-0.432 0.528,-0.375L0.438,-0.375C0.433,-0.407 0.419,-0.432 0.396,-0.452C0.372,-0.47 0.343,-0.48 0.308,-0.48C0.268,-0.48 0.236,-0.468 0.213,-0.444C0.19,-0.42 0.178,-0.387 0.178,-0.345L0.178,-0.205C0.178,-0.163 0.19,-0.13 0.213,-0.106C0.236,-0.082 0.267,-0.07 0.308,-0.07C0.343,-0.07 0.372,-0.08 0.396,-0.099C0.419,-0.118 0.433,-0.143 0.438,-0.175L0.528,-0.175C0.519,-0.117 0.496,-0.072 0.457,-0.039C0.418,-0.006 0.368,0.01 0.308,0.01Z" style="fill:rgb(166,183,200);fill-rule:nonzero;"/>
        </g>
        <g transform="matrix(103.445,0,0,103.445,677.008,357.896)">
            <path d="M0.112,-0.55L0.197,-0.55L0.197,-0.455L0.205,-0.455C0.214,-0.488 0.232,-0.513 0.259,-0.532C0.286,-0.551 0.32,-0.56 0.36,-0.56C0.418,-0.56 0.464,-0.542 0.497,-0.506C0.53,-0.469 0.546,-0.419 0.546,-0.356L0.546,-0.325L0.456,-0.325L0.456,-0.345C0.456,-0.388 0.445,-0.422 0.424,-0.446C0.402,-0.469 0.371,-0.481 0.331,-0.481C0.292,-0.481 0.26,-0.469 0.237,-0.445C0.214,-0.42 0.202,-0.387 0.202,-0.345L0.202,0L0.112,0L0.112,-0.55Z" style="fill:rgb(166,183,200);fill-rule:nonzero;"/>
        </g>
        <g transform="matrix(103.445,0,0,103.445,739.075,357.896)">
            <path d="M0.3,0.01C0.231,0.01 0.178,-0.009 0.139,-0.046C0.099,-0.083 0.08,-0.135 0.08,-0.2L0.08,-0.35C0.08,-0.415 0.099,-0.467 0.139,-0.504C0.178,-0.541 0.231,-0.56 0.3,-0.56C0.369,-0.56 0.423,-0.541 0.462,-0.504C0.501,-0.467 0.52,-0.415 0.52,-0.35L0.52,-0.249L0.17,-0.249L0.17,-0.205C0.17,-0.163 0.182,-0.13 0.205,-0.106C0.228,-0.082 0.259,-0.07 0.3,-0.07C0.33,-0.07 0.356,-0.075 0.378,-0.084C0.4,-0.093 0.416,-0.107 0.427,-0.125L0.517,-0.125C0.506,-0.083 0.481,-0.05 0.442,-0.026C0.403,-0.002 0.355,0.01 0.3,0.01ZM0.43,-0.324L0.43,-0.35C0.43,-0.391 0.419,-0.423 0.396,-0.446C0.373,-0.469 0.341,-0.48 0.3,-0.48C0.259,-0.48 0.227,-0.469 0.204,-0.446C0.181,-0.423 0.17,-0.391 0.17,-0.35L0.17,-0.324L0.43,-0.324Z" style="fill:rgb(166,183,200);fill-rule:nonzero;"/>
        </g>
        <g transform="matrix(103.445,0,0,103.445,801.143,357.896)">
            <path d="M0.063,-0.16C0.063,-0.186 0.068,-0.21 0.077,-0.231C0.086,-0.252 0.098,-0.269 0.116,-0.284C0.133,-0.299 0.153,-0.31 0.177,-0.318C0.201,-0.326 0.228,-0.33 0.258,-0.33L0.422,-0.33L0.422,-0.375C0.422,-0.409 0.411,-0.436 0.389,-0.455C0.366,-0.474 0.334,-0.483 0.292,-0.483C0.261,-0.483 0.235,-0.477 0.214,-0.466C0.192,-0.455 0.177,-0.439 0.17,-0.419L0.08,-0.419C0.089,-0.462 0.113,-0.497 0.152,-0.522C0.19,-0.547 0.237,-0.56 0.294,-0.56C0.362,-0.56 0.415,-0.544 0.454,-0.513C0.493,-0.481 0.512,-0.437 0.512,-0.38L0.512,0L0.43,0L0.43,-0.105L0.422,-0.105C0.413,-0.07 0.393,-0.042 0.361,-0.021C0.329,0 0.29,0.01 0.244,0.01C0.189,0.01 0.145,-0.005 0.112,-0.036C0.079,-0.067 0.063,-0.108 0.063,-0.16ZM0.264,-0.064C0.287,-0.064 0.308,-0.067 0.327,-0.073C0.346,-0.079 0.363,-0.088 0.377,-0.099C0.391,-0.11 0.402,-0.122 0.41,-0.137C0.418,-0.152 0.422,-0.168 0.422,-0.185L0.422,-0.26L0.26,-0.26C0.227,-0.26 0.2,-0.251 0.182,-0.234C0.163,-0.217 0.153,-0.193 0.153,-0.162C0.153,-0.131 0.163,-0.107 0.182,-0.09C0.201,-0.073 0.229,-0.064 0.264,-0.064Z" style="fill:rgb(166,183,200);fill-rule:nonzero;"/>
        </g>
        <g transform="matrix(103.445,0,0,103.445,863.21,357.896)">
            <path d="M0.06,-0.55L0.22,-0.55L0.22,-0.72L0.31,-0.72L0.31,-0.55L0.525,-0.55L0.525,-0.468L0.31,-0.468L0.31,-0.142C0.31,-0.123 0.316,-0.109 0.328,-0.098C0.339,-0.087 0.355,-0.082 0.375,-0.082L0.515,-0.082L0.515,0L0.375,0C0.328,0 0.29,-0.013 0.262,-0.039C0.234,-0.065 0.22,-0.099 0.22,-0.142L0.22,-0.468L0.06,-0.468L0.06,-0.55Z" style="fill:rgb(166,183,200);fill-rule:nonzero;"/>
        </g>
        <g transform="matrix(103.445,0,0,103.445,925.277,357.896)">
            <path d="M0.3,0.01C0.231,0.01 0.178,-0.009 0.139,-0.046C0.099,-0.083 0.08,-0.135 0.08,-0.2L0.08,-0.35C0.08,-0.415 0.099,-0.467 0.139,-0.504C0.178,-0.541 0.231,-0.56 0.3,-0.56C0.369,-0.56 0.423,-0.541 0.462,-0.504C0.501,-0.467 0.52,-0.415 0.52,-0.35L0.52,-0.249L0.17,-0.249L0.17,-0.205C0.17,-0.163 0.182,-0.13 0.205,-0.106C0.228,-0.082 0.259,-0.07 0.3,-0.07C0.33,-0.07 0.356,-0.075 0.378,-0.084C0.4,-0.093 0.416,-0.107 0.427,-0.125L0.517,-0.125C0.506,-0.083 0.481,-0.05 0.442,-0.026C0.403,-0.002 0.355,0.01 0.3,0.01ZM0.43,-0.324L0.43,-0.35C0.43,-0.391 0.419,-0.423 0.396,-0.446C0.373,-0.469 0.341,-0.48 0.3,-0.48C0.259,-0.48 0.227,-0.469 0.204,-0.446C0.181,-0.423 0.17,-0.391 0.17,-0.35L0.17,-0.324L0.43,-0.324Z" style="fill:rgb(166,183,200);fill-rule:nonzero;"/>
        </g>
        <g transform="matrix(103.445,0,0,103.445,987.344,357.896)">
            <rect x="0.06" y="0.025" width="0.48" height="0.075" style="fill:rgb(166,183,200);fill-rule:nonzero;"/>
        </g>
        <g transform="matrix(103.445,0,0,103.445,1049.41,357.896)">
            <path d="M0.09,-0.55L0.18,-0.55L0.18,-0.194C0.18,-0.111 0.22,-0.069 0.299,-0.069C0.38,-0.069 0.42,-0.111 0.42,-0.194L0.42,-0.55L0.51,-0.55L0.51,-0.194C0.51,-0.129 0.492,-0.078 0.456,-0.043C0.419,-0.008 0.367,0.01 0.299,0.01C0.232,0.01 0.181,-0.008 0.145,-0.044C0.108,-0.079 0.09,-0.129 0.09,-0.194L0.09,-0.55Z" style="fill:rgb(166,183,200);fill-rule:nonzero;"/>
        </g>
        <g transform="matrix(103.445,0,0,103.445,1111.48,357.896)">
            <path d="M0.285,0.01C0.227,0.01 0.179,-0.003 0.142,-0.03C0.104,-0.056 0.082,-0.091 0.077,-0.135L0.172,-0.135C0.176,-0.116 0.188,-0.1 0.209,-0.088C0.23,-0.076 0.255,-0.07 0.285,-0.07L0.313,-0.07C0.349,-0.07 0.377,-0.078 0.397,-0.093C0.417,-0.108 0.427,-0.128 0.427,-0.153C0.427,-0.196 0.396,-0.223 0.335,-0.232L0.252,-0.244C0.198,-0.252 0.158,-0.269 0.131,-0.295C0.104,-0.321 0.091,-0.357 0.091,-0.404C0.091,-0.453 0.109,-0.492 0.144,-0.519C0.179,-0.546 0.227,-0.56 0.29,-0.56L0.318,-0.56C0.345,-0.56 0.369,-0.557 0.392,-0.55C0.415,-0.543 0.435,-0.534 0.452,-0.522C0.469,-0.509 0.484,-0.495 0.495,-0.478C0.505,-0.46 0.513,-0.442 0.516,-0.421L0.421,-0.421C0.417,-0.438 0.406,-0.452 0.387,-0.464C0.368,-0.474 0.345,-0.48 0.318,-0.48L0.29,-0.48C0.256,-0.48 0.23,-0.473 0.211,-0.46C0.192,-0.447 0.182,-0.427 0.182,-0.4C0.182,-0.379 0.189,-0.363 0.202,-0.352C0.215,-0.341 0.236,-0.333 0.265,-0.329L0.348,-0.317C0.407,-0.308 0.451,-0.291 0.478,-0.265C0.505,-0.239 0.518,-0.202 0.518,-0.154C0.518,-0.103 0.5,-0.063 0.465,-0.034C0.429,-0.005 0.378,0.01 0.313,0.01L0.285,0.01Z" style="fill:rgb(166,183,200);fill-rule:nonzero;"/>
        </g>
        <g transform="matrix(103.445,0,0,103.445,1173.55,357.896)">
            <path d="M0.3,0.01C0.231,0.01 0.178,-0.009 0.139,-0.046C0.099,-0.083 0.08,-0.135 0.08,-0.2L0.08,-0.35C0.08,-0.415 0.099,-0.467 0.139,-0.504C0.178,-0.541 0.231,-0.56 0.3,-0.56C0.369,-0.56 0.423,-0.541 0.462,-0.504C0.501,-0.467 0.52,-0.415 0.52,-0.35L0.52,-0.249L0.17,-0.249L0.17,-0.205C0.17,-0.163 0.182,-0.13 0.205,-0.106C0.228,-0.082 0.259,-0.07 0.3,-0.07C0.33,-0.07 0.356,-0.075 0.378,-0.084C0.4,-0.093 0.416,-0.107 0.427,-0.125L0.517,-0.125C0.506,-0.083 0.481,-0.05 0.442,-0.026C0.403,-0.002 0.355,0.01 0.3,0.01ZM0.43,-0.324L0.43,-0.35C0.43,-0.391 0.419,-0.423 0.396,-0.446C0.373,-0.469 0.341,-0.48 0.3,-0.48C0.259,-0.48 0.227,-0.469 0.204,-0.446C0.181,-0.423 0.17,-0.391 0.17,-0.35L0.17,-0.324L0.43,-0.324Z" style="fill:rgb(166,183,200);fill-rule:nonzero;"/>
        </g>
        <g transform="matrix(103.445,0,0,103.445,1235.61,357.896)">
            <path d="M0.112,-0.55L0.197,-0.55L0.197,-0.455L0.205,-0.455C0.214,-0.488 0.232,-0.513 0.259,-0.532C0.286,-0.551 0.32,-0.56 0.36,-0.56C0.418,-0.56 0.464,-0.542 0.497,-0.506C0.53,-0.469 0.546,-0.419 0.546,-0.356L0.546,-0.325L0.456,-0.325L0.456,-0.345C0.456,-0.388 0.445,-0.422 0.424,-0.446C0.402,-0.469 0.371,-0.481 0.331,-0.481C0.292,-0.481 0.26,-0.469 0.237,-0.445C0.214,-0.42 0.202,-0.387 0.202,-0.345L0.202,0L0.112,0L0.112,-0.55Z" style="fill:rgb(166,183,200);fill-rule:nonzero;"/>
        </g>
        <g transform="matrix(103.445,0,0,103.445,1297.68,357.896)">
            <path d="M0.185,-0.455C0.185,-0.504 0.192,-0.549 0.206,-0.592C0.22,-0.634 0.24,-0.672 0.266,-0.706C0.292,-0.739 0.323,-0.768 0.361,-0.792C0.398,-0.816 0.439,-0.834 0.485,-0.845L0.485,-0.76C0.453,-0.753 0.424,-0.74 0.398,-0.722C0.372,-0.704 0.35,-0.682 0.332,-0.655C0.314,-0.628 0.3,-0.598 0.29,-0.565C0.28,-0.531 0.275,-0.494 0.275,-0.455L0.275,-0.265C0.275,-0.226 0.28,-0.19 0.29,-0.157C0.299,-0.124 0.313,-0.094 0.332,-0.068C0.35,-0.042 0.372,-0.02 0.398,-0.002C0.424,0.016 0.453,0.029 0.485,0.036L0.485,0.125C0.438,0.113 0.396,0.095 0.359,0.072C0.321,0.049 0.29,0.02 0.265,-0.013C0.239,-0.046 0.219,-0.084 0.206,-0.127C0.192,-0.169 0.185,-0.215 0.185,-0.265L0.185,-0.455Z" style="fill:rgb(166,183,200);fill-rule:nonzero;"/>
        </g>
        <g transform="matrix(103.445,0,0,103.445,1359.75,357.896)">
            <path d="M0.115,0.036C0.147,0.029 0.176,0.016 0.202,-0.002C0.228,-0.02 0.25,-0.042 0.269,-0.068C0.287,-0.094 0.301,-0.124 0.311,-0.157C0.32,-0.19 0.325,-0.226 0.325,-0.265L0.325,-0.455C0.325,-0.494 0.32,-0.531 0.31,-0.565C0.3,-0.598 0.286,-0.628 0.268,-0.655C0.25,-0.682 0.228,-0.704 0.202,-0.722C0.176,-0.74 0.147,-0.753 0.115,-0.76L0.115,-0.845C0.161,-0.834 0.203,-0.816 0.24,-0.792C0.277,-0.768 0.308,-0.739 0.334,-0.706C0.36,-0.672 0.38,-0.634 0.394,-0.592C0.408,-0.549 0.415,-0.504 0.415,-0.455L0.415,-0.265C0.415,-0.215 0.408,-0.169 0.395,-0.127C0.381,-0.084 0.361,-0.046 0.336,-0.013C0.31,0.02 0.278,0.049 0.242,0.072C0.204,0.095 0.162,0.113 0.115,0.125L0.115,0.036Z" style="fill:rgb(166,183,200);fill-rule:nonzero;"/>
        </g>
        <g transform="matrix(103.445,0,0,103.445,1483.88,357.896)">
            <path d="M0.085,-0.319L0.085,-0.399L0.195,-0.399C0.216,-0.399 0.234,-0.401 0.248,-0.405C0.261,-0.408 0.272,-0.414 0.279,-0.422C0.286,-0.43 0.291,-0.44 0.294,-0.453C0.296,-0.466 0.296,-0.481 0.295,-0.499L0.285,-0.664C0.284,-0.69 0.287,-0.713 0.295,-0.734C0.303,-0.755 0.315,-0.772 0.331,-0.787C0.347,-0.801 0.367,-0.812 0.391,-0.819C0.414,-0.826 0.441,-0.83 0.47,-0.83L0.515,-0.83L0.515,-0.75L0.47,-0.75C0.438,-0.75 0.414,-0.743 0.398,-0.729C0.381,-0.714 0.374,-0.693 0.375,-0.664L0.385,-0.499C0.386,-0.481 0.385,-0.464 0.38,-0.448C0.375,-0.431 0.368,-0.417 0.359,-0.405C0.349,-0.392 0.337,-0.382 0.322,-0.375C0.307,-0.368 0.29,-0.364 0.27,-0.363L0.27,-0.358C0.29,-0.357 0.308,-0.353 0.323,-0.346C0.338,-0.338 0.35,-0.328 0.359,-0.315C0.368,-0.302 0.375,-0.288 0.38,-0.271C0.385,-0.254 0.386,-0.237 0.385,-0.219L0.375,-0.056C0.374,-0.027 0.381,-0.006 0.398,0.009C0.414,0.023 0.438,0.03 0.47,0.03L0.515,0.03L0.515,0.11L0.47,0.11C0.441,0.11 0.414,0.106 0.391,0.099C0.367,0.092 0.347,0.081 0.331,0.067C0.315,0.052 0.303,0.035 0.295,0.014C0.287,-0.007 0.284,-0.03 0.285,-0.056L0.295,-0.219C0.296,-0.237 0.296,-0.252 0.294,-0.265C0.291,-0.278 0.286,-0.288 0.279,-0.296C0.272,-0.304 0.261,-0.31 0.248,-0.314C0.235,-0.317 0.217,-0.319 0.195,-0.319L0.085,-0.319Z" style="fill:rgb(166,183,200);fill-rule:nonzero;"/>
        </g>
        <g transform="matrix(103.445,0,0,103.445,1670.08,357.896)">
            <path d="M-0.885,-0.079C-0.885,-0.105 -0.877,-0.126 -0.862,-0.142C-0.846,-0.157 -0.825,-0.165 -0.799,-0.165C-0.773,-0.165 -0.752,-0.157 -0.737,-0.142C-0.721,-0.126 -0.713,-0.105 -0.713,-0.079C-0.713,-0.052 -0.721,-0.031 -0.737,-0.015C-0.752,0.002 -0.773,0.01 -0.799,0.01C-0.825,0.01 -0.846,0.002 -0.862,-0.015C-0.877,-0.031 -0.885,-0.052 -0.885,-0.079ZM-0.386,-0.079C-0.386,-0.105 -0.378,-0.126 -0.363,-0.142C-0.347,-0.157 -0.326,-0.165 -0.3,-0.165C-0.274,-0.165 -0.253,-0.157 -0.238,-0.142C-0.222,-0.126 -0.214,-0.105 -0.214,-0.079C-0.214,-0.052 -0.222,-0.031 -0.238,-0.015C-0.253,0.002 -0.274,0.01 -0.3,0.01C-0.326,0.01 -0.347,0.002 -0.363,-0.015C-0.378,-0.031 -0.386,-0.052 -0.386,-0.079ZM0.113,-0.079C0.113,-0.105 0.121,-0.126 0.137,-0.142C0.152,-0.157 0.173,-0.165 0.199,-0.165C0.225,-0.165 0.246,-0.157 0.262,-0.142C0.277,-0.126 0.285,-0.105 0.285,-0.079C0.285,-0.052 0.277,-0.031 0.262,-0.015C0.246,0.002 0.225,0.01 0.199,0.01C0.173,0.01 0.152,0.002 0.137,-0.015C0.121,-0.031 0.113,-0.052 0.113,-0.079Z" style="fill:rgb(166,183,200);fill-rule:nonzero;"/>
        </g>
        <g transform="matrix(103.445,0,0,103.445,1732.15,357.896)">
            <path d="M0.085,0.11L0.085,0.03L0.13,0.03C0.162,0.03 0.186,0.023 0.203,0.009C0.219,-0.006 0.226,-0.027 0.225,-0.056L0.215,-0.22C0.214,-0.238 0.216,-0.255 0.221,-0.272C0.225,-0.288 0.232,-0.302 0.242,-0.315C0.251,-0.327 0.263,-0.337 0.278,-0.344C0.293,-0.351 0.31,-0.355 0.33,-0.356L0.33,-0.361C0.31,-0.362 0.293,-0.366 0.278,-0.374C0.263,-0.381 0.25,-0.391 0.241,-0.404C0.232,-0.417 0.225,-0.431 0.221,-0.448C0.216,-0.465 0.214,-0.482 0.215,-0.5L0.225,-0.664C0.226,-0.693 0.219,-0.714 0.203,-0.729C0.186,-0.743 0.162,-0.75 0.13,-0.75L0.085,-0.75L0.085,-0.83L0.13,-0.83C0.159,-0.83 0.186,-0.826 0.21,-0.819C0.233,-0.812 0.253,-0.801 0.269,-0.787C0.285,-0.772 0.297,-0.755 0.305,-0.734C0.313,-0.713 0.316,-0.69 0.315,-0.664L0.305,-0.5C0.304,-0.482 0.305,-0.467 0.307,-0.454C0.309,-0.441 0.314,-0.431 0.321,-0.423C0.328,-0.415 0.339,-0.409 0.352,-0.406C0.365,-0.402 0.383,-0.4 0.405,-0.4L0.515,-0.4L0.515,-0.32L0.405,-0.32C0.384,-0.32 0.366,-0.318 0.353,-0.315C0.339,-0.311 0.328,-0.305 0.321,-0.297C0.314,-0.289 0.309,-0.279 0.307,-0.266C0.305,-0.253 0.304,-0.238 0.305,-0.22L0.315,-0.056C0.316,-0.03 0.313,-0.007 0.305,0.014C0.297,0.035 0.285,0.052 0.269,0.067C0.253,0.081 0.233,0.092 0.21,0.099C0.186,0.106 0.159,0.11 0.13,0.11L0.085,0.11Z" style="fill:rgb(166,183,200);fill-rule:nonzero;"/>
        </g>
    </g>
</svg>
