<?xml version="1.0" encoding="UTF-8" standalone="no"?>
<!DOCTYPE svg PUBLIC "-//W3C//DTD SVG 1.1//EN" "http://www.w3.org/Graphics/SVG/1.1/DTD/svg11.dtd">
<svg width="100%" height="100%" viewBox="0 0 1088 688" version="1.1" xmlns="http://www.w3.org/2000/svg" xmlns:xlink="http://www.w3.org/1999/xlink" xml:space="preserve" xmlns:serif="http://www.serif.com/" style="fill-rule:evenodd;clip-rule:evenodd;stroke-linejoin:round;stroke-miterlimit:2;">
    <g id="Group_12">
        <circle cx="544" cy="343.981" r="343.981" style="fill:rgb(242,242,242);"/>
        <path d="M882.769,284.049C886.193,303.502 887.981,323.534 887.981,343.981C887.981,533.829 733.848,687.962 544,687.962C527.654,687.962 511.573,686.819 495.851,684.612L349.304,543.094L736.171,142.482L882.769,284.049Z" style="fill:rgb(166,165,174);fill-opacity:0.46;"/>
        <path d="M745.972,163.296C745.972,148.386 733.867,136.281 718.957,136.281L369.043,136.281C354.133,136.281 342.028,148.386 342.028,163.296L342.028,524.666C342.028,539.576 354.133,551.681 369.043,551.681L718.957,551.681C733.867,551.681 745.972,539.576 745.972,524.666L745.972,163.296Z" style="fill:rgb(101,97,125);"/>
        <path d="M731.382,296.911C731.382,282.575 719.743,270.936 705.407,270.936L382.593,270.936C368.257,270.936 356.618,282.575 356.618,296.911L356.618,348.86C356.618,363.196 368.257,374.835 382.593,374.835L705.407,374.835C719.743,374.835 731.382,363.196 731.382,348.86L731.382,296.911Z" style="fill:rgb(73,72,83);"/>
        <path d="M731.382,416.562C731.382,402.226 719.743,390.587 705.407,390.587L382.593,390.587C368.257,390.587 356.618,402.226 356.618,416.562L356.618,468.511C356.618,482.847 368.257,494.486 382.593,494.486L705.407,494.486C719.743,494.486 731.382,482.847 731.382,468.511L731.382,416.562Z" style="fill:rgb(73,72,83);"/>
        <circle cx="705.407" cy="524.666" r="7.5" style="fill:rgb(211,211,211);"/>
        <path d="M731.382,177.259C731.382,162.923 719.743,151.285 705.407,151.285L382.593,151.285C368.257,151.285 356.618,162.923 356.618,177.259L356.618,229.209C356.618,243.545 368.257,255.183 382.593,255.183L705.407,255.183C719.743,255.183 731.382,243.545 731.382,229.209L731.382,177.259Z" style="fill:rgb(73,72,83);"/>
        <circle cx="683.63" cy="524.666" r="7.5" style="fill:rgb(4,135,166);"/>
        <path d="M551.913,179.641C551.913,179.158 551.521,178.766 551.038,178.766L378.101,178.766C377.618,178.766 377.226,179.158 377.226,179.641L377.226,181.39C377.226,181.873 377.618,182.265 378.101,182.265L551.038,182.265C551.521,182.265 551.913,181.873 551.913,181.39L551.913,179.641Z" style="fill:rgb(211,211,211);"/>
        <path d="M551.913,198.892C551.913,198.409 551.521,198.017 551.038,198.017L378.101,198.017C377.618,198.017 377.226,198.409 377.226,198.892L377.226,200.642C377.226,201.124 377.618,201.516 378.101,201.516L551.038,201.516C551.521,201.516 551.913,201.124 551.913,200.642L551.913,198.892Z" style="fill:rgb(211,211,211);"/>
        <path d="M551.038,294.286C551.038,293.804 550.646,293.412 550.163,293.412L377.226,293.412C376.743,293.412 376.351,293.804 376.351,294.286L376.351,296.036C376.351,296.519 376.743,296.911 377.226,296.911L550.163,296.911C550.646,296.911 551.038,296.519 551.038,296.036L551.038,294.286Z" style="fill:rgb(211,211,211);"/>
    </g>
</svg>
